<svg xmlns="http://www.w3.org/2000/svg" viewBox="0 0 1200 675" role="img" aria-label="Close-up abstract of vinyl wrapping over a body line">
  <defs>
    <radialGradient id="glow" cx="52%" cy="42%" r="65%">
      <stop offset="0%" stop-color="#4d5342" stop-opacity="0.5"/>
      <stop offset="60%" stop-color="#4d5342" stop-opacity="0.12"/>
      <stop offset="100%" stop-color="#0a0a0c" stop-opacity="0"/>
    </radialGradient>
    <linearGradient id="bgv" x1="0" y1="0" x2="0" y2="1">
      <stop offset="0%" stop-color="#101114"/>
      <stop offset="72%" stop-color="#0b0c0e"/>
      <stop offset="100%" stop-color="#08090a"/>
    </linearGradient>
    <linearGradient id="floor" x1="0" y1="0" x2="0" y2="1">
      <stop offset="0%" stop-color="#17181c"/>
      <stop offset="100%" stop-color="#0a0a0c"/>
    </linearGradient>
    <linearGradient id="body" x1="0" y1="0" x2="0" y2="1">
      <stop offset="0%" stop-color="#585f4a"/>
      <stop offset="55%" stop-color="#3c4133"/>
      <stop offset="100%" stop-color="#24281e"/>
    </linearGradient>
    <linearGradient id="glass" x1="0" y1="0" x2="0" y2="1">
      <stop offset="0%" stop-color="#2b2e33"/>
      <stop offset="100%" stop-color="#101215"/>
    </linearGradient>
    <radialGradient id="rim" cx="50%" cy="42%" r="60%">
      <stop offset="0%" stop-color="#3b3e43"/>
      <stop offset="70%" stop-color="#1a1c1f"/>
      <stop offset="100%" stop-color="#0c0d0f"/>
    </radialGradient>
    <linearGradient id="rimlight" x1="0" y1="0" x2="1" y2="0">
      <stop offset="0%" stop-color="#c9a962" stop-opacity="0"/>
      <stop offset="35%" stop-color="#c9a962" stop-opacity="0.9"/>
      <stop offset="75%" stop-color="#c9a962" stop-opacity="0.65"/>
      <stop offset="100%" stop-color="#c9a962" stop-opacity="0"/>
    </linearGradient>
    <radialGradient id="shadow" cx="50%" cy="50%" r="50%">
      <stop offset="0%" stop-color="#000" stop-opacity="0.75"/>
      <stop offset="100%" stop-color="#000" stop-opacity="0"/>
    </radialGradient>
  </defs>
  <rect width="1200" height="675" fill="url(#bgv)"/>
  <rect width="1200" height="675" fill="url(#glow)"/>
  <rect y="578" width="1200" height="97" fill="url(#floor)"/>
  <line x1="0" y1="578" x2="1200" y2="578" stroke="#26282e" stroke-width="1"/>
<g>
    <path fill="url(#body)" d="M0 675 L0 300 C220 260 420 250 640 292 C860 334 1020 350 1200 320 L1200 675 Z"/>
    <path fill="none" stroke="url(#rimlight)" stroke-width="4" stroke-linecap="round" d="M0 300 C220 260 420 250 640 292 C860 334 1020 350 1200 320"/>
    <path fill="#0a0a0c" opacity="0.5" d="M0 675 L0 480 C300 440 560 452 820 500 C960 526 1080 530 1200 512 L1200 675 Z"/>
    <path fill="none" stroke="#c9a962" stroke-opacity="0.4" stroke-width="2" d="M0 480 C300 440 560 452 820 500 C960 526 1080 530 1200 512"/>
  </g>
</svg>
